<svg class="qY_pAA" viewBox="0 0 205.6029122451377 101.70899207572018" style="overflow: hidden; width: 1154.76px; height: 571.245px;" xmlns="http://www.w3.org/2000/svg"><defs><clipPath id="__id365"><path d="M3.56096037,0L202.04195188,0C204.00861598,0 205.60291224,1.5942962600000001 205.60291225,3.56096037L205.60291225,98.14803171C205.60291224,100.11469581 204.00861598,101.70899207000001 202.04195188,101.70899208L3.56096037,101.70899208C1.5942962600000001,101.70899207000001 0,100.11469581 0,98.14803171L0,3.56096037C0,1.5942962600000001 1.5942962600000001,0 3.56096037,0Z"></path></clipPath></defs><path d="M3.56096037,0L202.04195188,0C204.00861598,0 205.60291224,1.5942962600000001 205.60291225,3.56096037L205.60291225,98.14803171C205.60291224,100.11469581 204.00861598,101.70899207000001 202.04195188,101.70899208L3.56096037,101.70899208C1.5942962600000001,101.70899207000001 0,100.11469581 0,98.14803171L0,3.56096037C0,1.5942962600000001 1.5942962600000001,0 3.56096037,0Z" stroke="#7d5d02" stroke-width="2" stroke-linecap="butt" clip-path="url(#__id365)" fill="none" vector-effect="non-scaling-stroke"></path></svg>